<?xml version="1.0" standalone="no"?>
<!DOCTYPE svg PUBLIC "-//W3C//DTD SVG 20010904//EN"
 "http://www.w3.org/TR/2001/REC-SVG-20010904/DTD/svg10.dtd">
<svg version="1.0" xmlns="http://www.w3.org/2000/svg"
 width="800.000000pt" height="800.000000pt" viewBox="0 0 800.000000 800.000000"
 preserveAspectRatio="xMidYMid meet">
<metadata>
Created by potrace 1.14, written by Peter Selinger 2001-2017
</metadata>
<g transform="translate(0.000000,800.000000) scale(0.100000,-0.100000)"
fill="#000000" stroke="none">
<path d="M4087 7994 c-1 -1 -40 -4 -87 -8 -47 -4 -96 -8 -110 -11 -14 -2 -61
-9 -105 -15 -44 -7 -89 -14 -100 -16 -82 -18 -109 -25 -180 -44 -44 -12 -87
-23 -95 -25 -8 -2 -16 -4 -17 -5 -2 -2 -6 -3 -10 -4 -132 -30 -478 -187 -643
-292 -47 -29 -92 -57 -100 -61 -8 -3 -17 -9 -20 -12 -3 -4 -31 -24 -62 -45
-32 -21 -66 -47 -77 -57 -11 -11 -23 -19 -27 -19 -4 0 -14 -8 -23 -18 -9 -9
-38 -35 -66 -57 -87 -68 -305 -293 -385 -395 -14 -18 -30 -37 -35 -44 -6 -6
-26 -33 -45 -61 -18 -27 -37 -52 -40 -55 -32 -25 -216 -358 -293 -530 -53
-118 -147 -425 -171 -555 -8 -40 -24 -141 -31 -187 -3 -21 -7 -54 -10 -73 -21
-152 -21 -519 1 -655 3 -19 8 -51 10 -70 5 -50 10 -81 17 -110 4 -14 9 -38 11
-55 17 -109 88 -362 125 -450 5 -11 21 -51 36 -90 39 -98 143 -307 193 -388
23 -37 42 -72 42 -77 0 -6 4 -10 8 -10 5 0 15 -12 23 -27 8 -16 16 -30 20 -33
3 -3 30 -41 60 -85 29 -44 60 -86 66 -93 7 -7 13 -17 13 -22 0 -5 6 -15 13
-22 11 -11 406 -575 432 -616 6 -8 35 -51 65 -93 30 -43 70 -100 88 -126 18
-26 54 -78 80 -115 26 -37 90 -128 142 -203 52 -75 100 -143 105 -152 6 -9 15
-24 22 -32 7 -9 94 -133 193 -276 99 -143 186 -267 193 -276 6 -8 17 -22 22
-31 55 -84 69 -104 74 -108 4 -3 32 -43 64 -90 32 -47 82 -119 110 -160 29
-41 83 -120 122 -175 38 -55 72 -102 75 -105 5 -5 94 -135 115 -168 6 -9 15
-22 22 -29 6 -7 21 -29 34 -50 13 -21 26 -40 29 -43 4 -3 26 -34 50 -70 24
-36 50 -71 57 -78 7 -7 13 -17 13 -22 0 -5 6 -15 13 -22 6 -7 29 -38 51 -70
37 -55 63 -72 92 -61 14 5 100 117 122 160 7 12 18 27 24 35 7 7 38 49 68 93
30 44 58 85 62 90 9 10 76 107 183 261 33 48 65 92 70 98 6 6 32 45 60 86 27
41 55 81 61 87 7 7 22 29 35 50 13 21 27 43 32 48 4 6 30 42 57 80 27 39 53
75 58 81 5 5 15 21 22 35 7 13 16 26 20 29 3 3 26 34 51 70 24 36 46 67 49 70
3 3 30 41 60 85 30 44 58 85 63 90 20 24 203 289 215 311 7 13 17 24 23 24 5
0 9 4 9 10 0 5 52 83 114 172 63 90 137 194 163 232 77 111 141 200 153 213 5
7 10 17 10 23 0 5 5 10 10 10 6 0 10 6 10 14 0 8 4 16 9 18 4 2 20 21 34 43
15 22 53 78 86 124 33 47 65 94 73 104 7 11 19 25 26 33 6 7 12 16 12 21 0 4
14 24 30 43 16 19 30 38 30 42 0 4 6 13 13 20 6 7 30 40 52 73 22 33 42 62 45
65 3 3 13 16 22 30 10 14 35 51 58 84 22 32 40 65 40 75 -1 24 -22 47 -50 53
-14 3 -77 18 -140 32 -109 26 -128 30 -175 40 -11 2 -63 14 -115 27 -52 13
-99 22 -103 21 -4 -1 -16 2 -25 7 -9 5 -35 11 -57 14 -22 3 -47 8 -55 11 -8 3
-26 8 -40 10 -14 3 -43 10 -65 15 -22 5 -51 12 -65 15 -48 9 -298 66 -465 106
-97 24 -114 27 -160 36 -16 3 -73 16 -125 29 -52 12 -111 26 -130 29 -19 3
-59 12 -88 20 -29 8 -55 15 -57 15 -10 1 -52 10 -145 31 -52 12 -102 23 -110
25 -8 2 -46 11 -85 20 -38 9 -81 19 -95 22 -14 3 -29 6 -35 7 -5 1 -26 6 -45
10 -19 4 -71 16 -115 26 -44 11 -91 21 -105 24 -57 11 -74 16 -174 51 -111 38
-224 93 -315 153 -31 20 -58 39 -61 42 -3 3 -23 18 -45 35 -66 49 -218 205
-271 280 -145 202 -238 431 -271 665 -10 69 -10 340 1 400 4 25 9 59 12 75 4
26 14 68 29 125 2 8 4 16 5 18 2 1 3 5 4 10 1 4 10 32 21 62 11 30 18 58 17
62 -1 3 5 12 13 18 8 7 15 19 15 27 0 22 45 104 119 218 89 136 262 309 396
397 199 130 404 208 610 232 17 2 30 5 30 6 0 1 63 3 140 5 121 2 234 -8 325
-29 14 -3 39 -8 55 -12 51 -10 177 -54 253 -90 80 -36 195 -103 200 -116 2 -4
9 -8 16 -8 6 0 26 -13 44 -30 18 -16 36 -30 40 -30 8 0 151 -139 192 -186 51
-58 190 -263 190 -279 0 -3 13 -32 29 -65 62 -127 107 -290 127 -461 6 -50 6
-249 0 -294 -12 -88 -23 -160 -26 -160 -1 0 -3 -13 -5 -29 -2 -16 -7 -36 -11
-45 -8 -18 -11 -27 -18 -56 -9 -38 -57 -157 -81 -203 -14 -26 -25 -53 -25 -59
0 -7 -4 -13 -10 -13 -5 0 -10 -5 -10 -10 0 -6 -22 -44 -50 -85 -109 -161 -236
-292 -377 -388 -34 -23 -65 -50 -69 -61 -8 -23 14 -45 52 -52 16 -2 74 -15
129 -29 55 -13 111 -26 125 -28 14 -3 57 -13 95 -22 39 -9 81 -19 95 -21 22
-5 90 -20 245 -56 39 -9 48 -10 109 -23 16 -3 33 -8 36 -10 4 -2 22 -7 41 -10
19 -3 52 -10 74 -16 161 -39 208 -46 237 -35 15 6 28 14 28 18 0 4 15 28 34
53 77 100 200 316 256 445 17 41 38 89 45 105 16 38 96 283 100 310 2 11 10
53 19 92 18 82 26 124 31 168 8 56 16 131 20 176 6 61 5 325 0 374 -3 22 -7
65 -9 95 -6 67 -18 149 -30 200 -3 14 -8 36 -10 50 -35 212 -182 586 -311 790
-14 22 -25 42 -25 45 0 3 -5 11 -10 18 -6 7 -42 57 -81 112 -84 118 -164 212
-270 315 -69 68 -108 104 -209 191 -121 104 -435 288 -613 358 -161 64 -383
131 -485 146 -50 8 -87 13 -117 19 -90 15 -158 19 -328 21 -103 0 -189 0 -190
-1z"/>
</g>
</svg>
